HIERARCHY
ROOT Hips
{
	OFFSET 0.000000 88.474243 0.000000
	CHANNELS 6 Xposition Yposition Zposition Zrotation Yrotation Xrotation 
	JOINT Hips_Spine
	{
		OFFSET 0.000000 0.000000 0.000000
		CHANNELS 3 Zrotation Yrotation Xrotation
		JOINT Spine
		{
			OFFSET 0.005100 8.711998 -0.691000
			CHANNELS 3 Zrotation Yrotation Xrotation
			JOINT Spine1
			{
				OFFSET -0.009200 8.660301 -1.275000
				CHANNELS 3 Zrotation Yrotation Xrotation
				JOINT Spine2
				{
					OFFSET 0.006300 9.852501 -1.857000
					CHANNELS 3 Zrotation Yrotation Xrotation
					JOINT Spine2_Neck
					{
						OFFSET 0.000000 0.000000 0.000000
						CHANNELS 3 Zrotation Yrotation Xrotation
						JOINT Neck
						{
							OFFSET 0.016300 11.420799 -0.263300
							CHANNELS 3 Zrotation Yrotation Xrotation
							End Site #name: Head
							{
								OFFSET -0.019200 9.262405 2.362500
							}
						}
					}
					JOINT Spine2_LeftShoulder
					{
						OFFSET 0.000000 0.000000 0.000000
						CHANNELS 3 Zrotation Yrotation Xrotation
						JOINT LeftShoulder
						{
							OFFSET 5.616900 6.732201 -0.345700
							CHANNELS 3 Zrotation Yrotation Xrotation
							JOINT LeftArm
							{
								OFFSET 10.664888 -0.183372 -2.440700
								CHANNELS 3 Zrotation Yrotation Xrotation
								JOINT LeftForeArm
								{
									OFFSET 27.459126 0.000000 0.000000
									CHANNELS 3 Zrotation Yrotation Xrotation
									End Site #name: LeftHand
									{
										OFFSET 21.306858 0.000000 0.000000
									}
								}
							}
						}
					}
					JOINT Spine2_RightShoulder
					{
						OFFSET 0.000000 0.000000 0.000000
						CHANNELS 3 Zrotation Yrotation Xrotation
						JOINT RightShoulder
						{
							OFFSET -5.580300 6.737503 -0.344400
							CHANNELS 3 Zrotation Yrotation Xrotation
							JOINT RightArm
							{
								OFFSET -10.679335 -0.188484 -2.383900
								CHANNELS 3 Zrotation Yrotation Xrotation
								JOINT RightForeArm
								{
									OFFSET -27.503529 0.000000 0.000000
									CHANNELS 3 Zrotation Yrotation Xrotation
									End Site #name: RightHand
									{
										OFFSET -21.306808 0.000000 0.000000
									}
								}
							}
						}
					}
				}
			}
		}
	}
	JOINT Hips_LeftUpLeg
	{
		OFFSET 0.000000 0.000000 0.000000
		CHANNELS 3 Zrotation Yrotation Xrotation
		JOINT LeftUpLeg
		{
			OFFSET 6.857700 -6.739601 0.312100
			CHANNELS 3 Zrotation Yrotation Xrotation
			JOINT LeftLeg
			{
				OFFSET -0.367590 -34.731552 -4.572400
				CHANNELS 3 Zrotation Yrotation Xrotation
				End Site #name: LeftFoot
				{
					OFFSET 0.367590 -34.656704 -6.067400
				}
			}
		}
	}
	JOINT Hips_RightUpLeg
	{
		OFFSET 0.000000 0.000000 0.000000
		CHANNELS 3 Zrotation Yrotation Xrotation
		JOINT RightUpLeg
		{
			OFFSET -6.876100 -6.733299 0.301000
			CHANNELS 3 Zrotation Yrotation Xrotation
			JOINT RightLeg
			{
				OFFSET 0.347353 -34.795158 -4.515900
				CHANNELS 3 Zrotation Yrotation Xrotation
				End Site #name: RightFoot
				{
					OFFSET -0.347353 -34.589367 -6.070300
				}
			}
		}
	}
}
MOTION
Frames: 9
Frame Time: 0.041667
2.689438 0.901522 -5.229284 175.006196 -17.316283 -178.616161 0.000000 -0.000000 0.000000 -5.308359 1.007659 3.572348 -0.079808 -2.260429 1.079427 0.000000 0.000000 0.000000 0.865832 -1.854042 1.757959 3.545493 -37.179382 -1.447176 -0.213919 -1.734620 -0.550051 1.644999 -8.542412 0.932852 -84.762609 -22.163156 7.264033 5.450927 -24.757465 0.591290 -0.161497 -2.648799 0.141112 15.597184 17.948093 3.734635 55.477784 12.886559 6.917655 0.576103 61.563910 3.548465 0.000000 0.000000 0.000000 -3.550687 16.729105 -5.868695 0.729609 -37.063670 -15.768737 0.000000 0.000000 -0.000000 -3.159293 -49.785759 -12.391007 -11.829389 -5.921676 21.094178 
2.736410 0.965029 -5.358105 175.003899 -17.436819 -178.655835 0.000000 -0.000000 0.000000 -5.591211 1.071226 3.721364 -0.123757 -2.166574 0.967368 0.000000 0.000000 0.000000 0.789497 -1.813246 1.647271 3.208585 -36.317352 -1.571231 -0.250344 -1.686955 -0.570414 1.630505 -8.729110 0.951734 -84.433368 -22.376293 7.534232 5.242691 -25.651337 0.315093 -0.207064 -2.580136 0.034627 15.174343 18.063138 3.644227 55.497506 12.737051 7.308712 -0.499949 61.632642 2.659315 0.000000 0.000000 0.000000 -3.599516 16.504996 -6.239685 0.608072 -36.836130 -15.301878 0.000000 0.000000 -0.000000 -3.122951 -48.949317 -12.196550 -11.167466 -4.965788 20.596777 
2.784654 1.029776 -5.481528 174.968111 -17.717789 -178.677578 0.000000 -0.000000 0.000000 -5.857676 1.182415 3.863993 -0.167547 -2.064405 0.870678 0.000000 0.000000 0.000000 0.713621 -1.764107 1.555912 2.893327 -35.266688 -1.750944 -0.284365 -1.633088 -0.578613 1.610736 -8.886769 0.971599 -84.058157 -22.614234 7.840524 5.090284 -26.751398 0.042950 -0.248848 -2.508210 -0.062692 14.727625 18.179688 3.538666 55.516494 12.556015 7.678793 -1.470618 61.618166 1.925267 0.000000 0.000000 0.000000 -3.656124 16.314445 -6.664840 0.459821 -36.599699 -14.746786 0.000000 0.000000 -0.000000 -3.145886 -48.217939 -11.937496 -10.562896 -4.025340 20.081738 
2.834674 1.095393 -5.600998 174.888080 -18.002407 -178.683005 0.000000 -0.000000 0.000000 -6.115259 1.342261 3.990668 -0.209026 -1.948867 0.807296 0.000000 0.000000 0.000000 0.646269 -1.707854 1.494568 2.608316 -34.082843 -1.985775 -0.314225 -1.569988 -0.570465 1.600153 -9.020517 0.985711 -83.633130 -22.879093 8.152549 5.010953 -28.006332 -0.225631 -0.288093 -2.432910 -0.116722 14.257035 18.276775 3.420437 55.533993 12.376846 8.045326 -2.101907 61.502334 1.429942 0.000000 0.000000 0.000000 -3.705802 16.137039 -7.119312 0.279379 -36.347314 -14.100440 0.000000 0.000000 -0.000000 -3.198930 -47.581250 -11.648203 -10.073862 -3.108763 19.598788 
2.887107 1.161896 -5.717877 174.747965 -18.151069 -178.670372 0.000000 -0.000000 0.000000 -6.366260 1.533196 4.127959 -0.250692 -1.818487 0.778261 0.000000 0.000000 0.000000 0.587691 -1.646191 1.461595 2.303482 -32.799666 -2.290559 -0.341127 -1.499909 -0.549420 1.588418 -9.129579 0.997605 -83.166283 -23.164540 8.482631 4.978671 -29.394269 -0.500354 -0.322512 -2.349941 -0.145140 13.802753 18.370503 3.299324 55.552294 12.242113 8.409044 -2.242279 61.384255 1.360006 0.000000 0.000000 0.000000 -3.758460 15.951780 -7.615690 0.065943 -36.056706 -13.375103 0.000000 0.000000 -0.000000 -3.281245 -47.104968 -11.353352 -9.687433 -2.216356 19.150397 
2.942193 1.228095 -5.833641 174.553530 -18.071756 -178.632246 0.000000 -0.000000 0.000000 -6.591092 1.733137 4.265000 -0.300643 -1.719373 0.747260 0.000000 0.000000 0.000000 0.536790 -1.581245 1.446365 2.008400 -31.454104 -2.721269 -0.365289 -1.421235 -0.517637 1.568608 -9.211958 1.009322 -82.654435 -23.434831 8.829905 5.016132 -30.884728 -0.754156 -0.354427 -2.258892 -0.158860 13.393819 18.412597 3.310228 55.560104 12.179061 8.725064 -2.339188 61.372450 1.349409 0.000000 0.000000 0.000000 -3.812712 15.751074 -8.159064 -0.178163 -35.727133 -12.581396 0.000000 0.000000 -0.000000 -3.380216 -46.886352 -11.079737 -9.322064 -1.246890 18.765009 
3.000615 1.293227 -5.948477 174.343979 -17.738569 -178.583812 -0.000000 -0.000000 0.000000 -6.793498 1.919148 4.403000 -0.358597 -1.622295 0.738276 0.000000 0.000000 0.000000 0.489779 -1.511777 1.441899 1.740613 -30.103196 -3.346456 -0.388360 -1.338388 -0.479538 1.542879 -9.273969 1.022125 -82.115407 -23.712567 9.173586 5.156544 -33.474695 -1.054338 -0.385427 -2.164118 -0.164625 13.022551 18.436384 3.429723 55.554573 12.201589 8.998014 -2.433591 61.544520 1.327077 0.000000 0.000000 -0.000000 -3.867337 15.552984 -8.769316 -0.461872 -35.355230 -11.693586 0.000000 0.000000 -0.000000 -3.500321 -46.914621 -10.820187 -8.843931 -0.149379 18.403719 
3.062495 1.356541 -6.062598 174.124493 -17.344233 -178.525040 -0.000000 -0.000000 0.000000 -6.981977 2.081200 4.562989 -0.415863 -1.529495 0.743346 0.000000 0.000000 0.000000 0.451090 -1.447160 1.464276 1.529652 -28.778975 -4.159686 -0.407963 -1.256562 -0.436035 1.529579 -9.330243 1.034005 -81.568415 -23.991720 9.479534 5.402850 -36.447055 -1.313064 -0.410232 -2.071170 -0.162677 12.704444 18.495181 3.579855 55.535870 12.318505 9.220838 -2.495514 61.942490 1.287826 0.000000 0.000000 -0.000000 -3.924412 15.372081 -9.423949 -0.779006 -34.945190 -10.719921 0.000000 0.000000 -0.000000 -3.650694 -47.135769 -10.608065 -8.327922 0.870406 18.135751 
3.129066 1.416219 -6.175172 173.888013 -17.139720 -178.454555 -0.000000 -0.000000 0.000000 -7.186624 2.201537 4.734241 -0.471060 -1.450227 0.752622 0.000000 0.000000 0.000000 0.418617 -1.388181 1.491016 1.351696 -27.469258 -5.065861 -0.426436 -1.177787 -0.392724 1.538056 -9.418889 1.045986 -81.072756 -24.241877 9.720123 5.709916 -39.317072 -1.559010 -0.432371 -1.989438 -0.159425 12.469125 18.597175 3.760522 55.496608 12.556816 9.319842 -2.552607 62.552418 1.262226 0.000000 0.000000 -0.000000 -3.982442 15.208242 -10.063836 -1.111390 -34.507634 -9.687617 0.000000 0.000000 -0.000000 -3.812719 -47.501167 -10.437788 -7.696537 1.813290 17.932706 
